<svg height="230" width="280" viewBox="0 0 58 42" xmlns="http://www.w3.org/2000/svg">
  <defs><style>.cls-1{fill:#00b3cd;}</style></defs>
  
  
  <path d="M35.14,3.7H3.7v30H35.14ZM1.85,0H37a1.85,1.85,0,0,1,1.85,1.85V35.57A1.85,1.85,0,0,1,37,37.42H1.85A1.85,1.85,0,0,1,0,35.57V1.85A1.85,1.85,0,0,1,1.85,0Z" class="cls-1"></path>
  
  
  <circle fill="#ffffff" r="4.3" cy="16" cx="15"></circle>
  <circle fill="#00b3cd" r="2.4" cy="16" cx="15"></circle>
  
  
  <circle fill="#ffffff" r="4.1" cy="16" cx="29"></circle>
  <circle fill="#00b3cd" r="2.3" cy="16" cx="29"></circle>
  
  
  <path stroke-linecap="round" stroke-width="3.2" stroke="#00b3cd" fill="none" d="M14 26 L 29 26"></path>
  
  
  
  <circle stroke-dasharray="8 4" stroke-width="1.8" stroke="#00b3cd" fill="none" r="7" cy="13.5" cx="47"></circle>
  
  
  <circle fill="#00b3cd" r="1" cy="23" cx="41"></circle>
  <circle fill="#00b3cd" r="1" cy="23" cx="45"></circle>
  <circle fill="#00b3cd" r="1" cy="23" cx="49"></circle>
  
  
  <path stroke-linecap="round" stroke-width="1.6" stroke="#00b3cd" fill="none" d="M40 7 Q 46 3 53 8"></path>
</svg>
