<svg height="230" width="260" viewBox="0 0 52 42" xmlns="http://www.w3.org/2000/svg">
  <defs><style>.cls-1{fill:#00b3cd;}</style></defs>
  
  <path d="M35.14,3.7H3.7v30H35.14ZM1.85,0H37a1.85,1.85,0,0,1,1.85,1.85V35.57A1.85,1.85,0,0,1,37,37.42H1.85A1.85,1.85,0,0,1,0,35.57V1.85A1.85,1.85,0,0,1,1.85,0Z" class="cls-1"></path>
  
  
  <circle fill="#ffffff" r="4.1" cy="16.5" cx="15"></circle>
  <circle fill="#00b3cd" r="2.3" cy="16.5" cx="15"></circle>
  
  
  <path stroke-linecap="round" stroke-width="3" stroke="#00b3cd" fill="none" d="M26 15.5 Q 30 14.5 33.5 16"></path>
  
  
  <path stroke-linecap="round" stroke-width="3" stroke="#00b3cd" fill="none" d="M13 25 Q 20 27.5 28 25.5"></path>
  
  
  <ellipse stroke-width="1.8" stroke="#00b3cd" fill="#ffffff" ry="8" rx="9.5" cy="9.5" cx="44"></ellipse>
  <path stroke="#00b3cd" fill="#ffffff" d="M39 15 L 38 18 L 41 17 Z"></path>
  
  <circle fill="#00b3cd" r="1" cy="9" cx="40.5"></circle>
  <circle fill="#00b3cd" r="1" cy="9" cx="44"></circle>
  <circle fill="#00b3cd" r="1" cy="9" cx="47.5"></circle>
</svg>
