<svg height="230" width="280" viewBox="0 0 58 42" xmlns="http://www.w3.org/2000/svg">
  <defs><style>.cls-1{fill:#00b3cd;}</style></defs>
  
  
  <path d="M35.14,3.7H3.7v30H35.14ZM1.85,0H37a1.85,1.85,0,0,1,1.85,1.85V35.57A1.85,1.85,0,0,1,37,37.42H1.85A1.85,1.85,0,0,1,0,35.57V1.85A1.85,1.85,0,0,1,1.85,0Z" class="cls-1"></path>
  
  
  <circle fill="#ffffff" r="4.3" cy="16" cx="15"></circle>
  <circle fill="#00b3cd" r="2.4" cy="16" cx="15"></circle>
  
  
  <circle fill="#ffffff" r="4.1" cy="16" cx="29"></circle>
  <circle fill="#00b3cd" r="2.3" cy="16" cx="29"></circle>
  
  
  <ellipse stroke-width="2.6" stroke="#00b3cd" fill="#ffffff" ry="5.8" rx="4.6" cy="26.5" cx="22.5"></ellipse>
  
  
  
  <rect stroke-width="1.5" stroke="#00b3cd" fill="#ffffff" rx="2" height="13" width="16" y="7" x="39"></rect>
  
  <path stroke-width="1" stroke="#00b3cd" fill="#ffffff" d="M41 19 L 39.5 21 L 43 20 Z"></path>
  
  
  <path fill="#00b3cd" d="M47 11 L 52 8 L 49 14 Z"></path>
  <path stroke-linecap="round" stroke-width="1.8" stroke="#00b3cd" fill="none" d="M52 8 Q 47 8 44 12"></path>
  
  
  <path stroke-linecap="round" stroke-width="1.5" stroke="#00b3cd" fill="none" d="M40 23 Q 43 21 45.5 23"></path>
  <path stroke-linecap="round" stroke-width="1.4" stroke="#00b3cd" fill="none" d="M41.5 26 Q 44.5 24.5 47 26.5"></path>
</svg>
