<svg height="230" width="260" viewBox="0 0 52 42" xmlns="http://www.w3.org/2000/svg">
  <defs><style>.cls-1{fill:#00b3cd;}</style></defs>
  
  <path d="M35.14,3.7H3.7v30H35.14ZM1.85,0H37a1.85,1.85,0,0,1,1.85,1.85V35.57A1.85,1.85,0,0,1,37,37.42H1.85A1.85,1.85,0,0,1,0,35.57V1.85A1.85,1.85,0,0,1,1.85,0Z" class="cls-1"></path>
  
  
  <circle stroke-width="2.3" stroke="#00b3cd" fill="#ffffff" r="5" cy="16" cx="15"></circle>
  <circle fill="#00b3cd" r="2.7" cy="16" cx="15"></circle>
  <circle stroke-width="2.2" stroke="#00b3cd" fill="#ffffff" r="4.7" cy="16" cx="29"></circle>
  <circle fill="#00b3cd" r="2.5" cy="16" cx="29"></circle>
  
  
  <path stroke-linecap="round" stroke-width="2.3" stroke="#00b3cd" fill="none" d="M10.5 10 Q 16.5 8 21 10.5"></path>
  <path stroke-linecap="round" stroke-width="2.2" stroke="#00b3cd" fill="none" d="M25 9.5 Q 30 8.2 34.5 10.8"></path>
  
  
  <path stroke-linecap="round" stroke-width="3.3" stroke="#00b3cd" fill="none" d="M13 25 Q 20.5 30 29 26"></path>
</svg>
