<svg height="230" width="280" viewBox="0 0 58 42" xmlns="http://www.w3.org/2000/svg">
  <defs><style>.cls-1{fill:#00b3cd;}</style></defs>
  
  
  <path d="M35.14,3.7H3.7v30H35.14ZM1.85,0H37a1.85,1.85,0,0,1,1.85,1.85V35.57A1.85,1.85,0,0,1,37,37.42H1.85A1.85,1.85,0,0,1,0,35.57V1.85A1.85,1.85,0,0,1,1.85,0Z" class="cls-1"></path>
  
  
  <circle fill="#ffffff" r="4.3" cy="16" cx="15"></circle>
  <circle fill="#00b3cd" r="2.4" cy="16" cx="15"></circle>
  
  
  <circle fill="#ffffff" r="4.1" cy="16" cx="29"></circle>
  <circle fill="#00b3cd" r="2.3" cy="16" cx="29"></circle>
  
  
  <path stroke-linecap="round" stroke-width="3.2" stroke="#00b3cd" fill="none" d="M13.5 26 Q 21 23.5 29.5 26"></path>
  
  
  
  <path stroke-width="1.6" stroke="#00b3cd" fill="#ffffff" d="M39 8 L 39 19 L 52 19 L 52 10 L 45 8 Z"></path>
  
  <rect stroke-width="1.5" stroke="#00b3cd" fill="#ffffff" height="3" width="8" y="7" x="39"></rect>
  
  
  <path stroke-linecap="round" stroke-width="2.4" stroke="#e74c3c" fill="none" d="M41 11 L 49.5 18"></path>
  <path stroke-linecap="round" stroke-width="2.4" stroke="#e74c3c" fill="none" d="M49.5 11 L 41 18"></path>
  
  
  <text font-weight="bold" fill="#e74c3c" font-size="4" y="25" x="39">404</text>
</svg>
